<svg xmlns="http://www.w3.org/2000/svg" height="1200" width="1600" version="1.1" xmlns:xlink="http://www.w3.org/1999/xlink" xmlns:svgjs="http://svgjs.com/svgjs"><rect fill="#f3f2f1" width="1600" height="1200"></rect><g><path d="M1139.81 838.73L650.01 291.51 337.73 703.15 1139.81 838.73Z" fill="#3c2c5b" opacity="1" stroke-width="4" stroke="none"></path></g><g><path d="M1055.21 391.68L510.58 340.97 460.44 879.46 1005.07 930.18 1055.21 391.68Z" fill="#61ccff" opacity="1" stroke-width="4" stroke="none"></path></g><g><path d="M1082.78 888.17C1036.78 931.96 945.79 1021.24 827.65 1039.47 709.51 1057.7 681.87 1000.19 731.95 957.11 785 911.51 924.83 891.9 1011.77 905.92 1098.7 919.95 1130.83 951.13 1121.84 980.76 1110.11 1019.64 1002.62 1090.52 870.99 1057.29 739.37 1024.07 875.83 882.99 937.72 854.62 994.94 828.42 1033.02 838.75 1029.95 879.97 1026.55 926.7 959.05 1063.24 807.83 1108.3" stroke="#000000" stroke-width="4" stroke-linecap="round" stroke-linejoin="round" opacity="1" fill="none"></path></g><g><path d="M1201.69 528.74C1102.47 508.32 973.92 455.31 933.21 318.05 892.5 180.8 986.34 139.88 1068.96 271.17 1151.58 402.46 1188.55 585.89 1147.86 599.18 1107.17 612.47 996.02 450.57 1047.29 349.86 1098.57 249.15 1279.03 290.78 1247.31 427.76 1227.46 513.3 1083.58 532.48 932.14 425.27 780.71 318.05 993.71 169.26 1103.21 257.46 1212.71 345.66 1162.64 545.16 1046.62 556.55 942.44 566.99 904.03 400 1002.19 320.84" stroke="#262626" stroke-width="4" stroke-linecap="round" stroke-linejoin="round" opacity="1" fill="none"></path></g><g><path d="M680.54 659.46H568.3L654.97 554.94V738.01" stroke="#3c2c5b" stroke-width="4" stroke-linecap="round" stroke-linejoin="round" opacity="1" fill="none"></path><path d="M948.64 659.46H836.2L923.07 554.94V738.01" stroke="#3c2c5b" stroke-width="4" stroke-linecap="round" stroke-linejoin="round" opacity="1" fill="none"></path><path d="M749.75 554.94H769.64C790.95 554.94 808.2 572.19 808.2 593.5V697.62C808.2 718.93 790.95 736.18 769.64 736.18H749.75C728.44 736.18 711.18 718.93 711.18 697.62V593.5C711.18 572.19 728.44 554.94 749.75 554.94Z" stroke="#3c2c5b" stroke-width="4" stroke-linecap="round" stroke-linejoin="round" opacity="1" fill="none"></path></g><g><path d="M1209.92 964.38C1240.55 964.38 1265.38 939.55 1265.38 908.92 1265.38 878.28 1240.55 853.45 1209.92 853.45 1179.28 853.45 1154.45 878.28 1154.45 908.92 1154.45 939.55 1179.28 964.38 1209.92 964.38Z" fill="#c169fc" opacity="1" stroke-width="4" stroke="none"></path></g><g><path d="M380.56 986.71C398.04 999.18 422.33 995.12 434.8 977.63 447.27 960.15 443.21 935.86 425.72 923.39 408.24 910.92 383.95 914.98 371.48 932.46 359.01 949.95 363.07 974.23 380.56 986.71Z" fill="#000000" opacity="0.25" stroke-width="4" stroke="none"></path><path d="M389.15 956.91C406.79 969.49 431.28 965.39 443.86 947.76 456.44 930.12 452.34 905.63 434.71 893.05 417.07 880.47 392.58 884.57 380 902.21 367.42 919.84 371.52 944.33 389.15 956.91Z" fill="#262626" opacity="1" stroke-width="4" stroke="none"></path></g><g><path d="M354.52 561.81C340.87 561.81 329.81 572.88 329.81 586.53 329.81 600.17 340.87 611.24 354.52 611.24 368.17 611.24 379.23 600.17 379.23 586.53 379.23 572.88 368.17 561.81 354.52 561.81Z" fill="#c169fc" opacity="1" stroke-width="4" stroke="none"></path></g></svg>